{
  "accessors": [
    {
      "bufferView": 2,
      "componentType": 5126,
      "count": 1480,
      "max": [
        0.6144070029258728,
        0.61413699388504028,
        10.572530746459961
      ],
      "min": [
        -0.6144070029258728,
        -0.61413800716400146,
        0.602944016456604
      ],
      "type": "VEC3"
    },
    {
      "bufferView": 2,
      "byteOffset": 17760,
      "componentType": 5126,
      "count": 1480,
      "max": [
        0.99970161914825439,
        0.99970024824142456,
        1
      ],
      "min": [
        -0.99970221519470215,
        -0.99970245361328125,
        -0.99882352352142334
      ],
      "type": "VEC3"
    },
    {
      "bufferView": 3,
      "componentType": 5126,
      "count": 1480,
      "max": [
        0.99970245361328125,
        0.99992519617080688,
        0.94710606336593628,
        1
      ],
      "min": [
        -0.99970114231109619,
        -0.99992519617080688,
        -0.99992930889129639,
        1
      ],
      "type": "VEC4"
    },
    {
      "bufferView": 1,
      "componentType": 5126,
      "count": 1480,
      "max": [
        0.99037498235702515,
        0.95255601406097412
      ],
      "min": [
        0.18020300567150116,
        0.040183000266551971
      ],
      "type": "VEC2"
    },
    {
      "bufferView": 0,
      "componentType": 5125,
      "count": 4794,
      "max": [
        1479
      ],
      "min": [
        0
      ],
      "type": "SCALAR"
    },
    {
      "bufferView": 2,
      "byteOffset": 35520,
      "componentType": 5126,
      "count": 9140,
      "max": [
        1.7689019441604614,
        1.769677996635437,
        10.071994781494141
      ],
      "min": [
        -1.7689019441604614,
        -1.7696770429611206,
        -0.0020210000220686197
      ],
      "type": "VEC3"
    },
    {
      "bufferView": 2,
      "byteOffset": 145200,
      "componentType": 5126,
      "count": 9140,
      "max": [
        0.99903076887130737,
        0.99929624795913696,
        1
      ],
      "min": [
        -0.99904334545135498,
        -0.99946838617324829,
        -1
      ],
      "type": "VEC3"
    },
    {
      "bufferView": 3,
      "byteOffset": 23680,
      "componentType": 5126,
      "count": 9140,
      "max": [
        0.99990743398666382,
        0.99953985214233398,
        0.99397534132003784,
        1
      ],
      "min": [
        -0.99990743398666382,
        -0.99972575902938843,
        -0.99959582090377808,
        1
      ],
      "type": "VEC4"
    },
    {
      "bufferView": 1,
      "byteOffset": 11840,
      "componentType": 5126,
      "count": 9140,
      "max": [
        0.98846197128295898,
        0.99740201234817505
      ],
      "min": [
        0.0025979999918490648,
        0.0025979999918490648
      ],
      "type": "VEC2"
    },
    {
      "bufferView": 0,
      "byteOffset": 19176,
      "componentType": 5125,
      "count": 40050,
      "max": [
        9139
      ],
      "min": [
        0
      ],
      "type": "SCALAR"
    },
    {
      "bufferView": 2,
      "byteOffset": 254880,
      "componentType": 5126,
      "count": 4348,
      "max": [
        1.7689019441604614,
        1.769677996635437,
        10.521289825439453
      ],
      "min": [
        -1.7689019441604614,
        -1.7696770429611206,
        0.49280300736427307
      ],
      "type": "VEC3"
    },
    {
      "bufferView": 2,
      "byteOffset": 307056,
      "componentType": 5126,
      "count": 4348,
      "max": [
        0.99990963935852051,
        0.99970173835754395,
        1
      ],
      "min": [
        -0.99990665912628174,
        -0.99970161914825439,
        -0.99364262819290161
      ],
      "type": "VEC3"
    },
    {
      "bufferView": 3,
      "byteOffset": 169920,
      "componentType": 5126,
      "count": 4348,
      "max": [
        0.99970167875289917,
        0.99990975856781006,
        0.99346107244491577,
        1
      ],
      "min": [
        -0.99970167875289917,
        -0.99990671873092651,
        -1,
        1
      ],
      "type": "VEC4"
    },
    {
      "bufferView": 1,
      "byteOffset": 84960,
      "componentType": 5126,
      "count": 4348,
      "max": [
        0.98931598663330078,
        0.99740201234817505
      ],
      "min": [
        0.0027489999774843454,
        0.0041160001419484615
      ],
      "type": "VEC2"
    },
    {
      "bufferView": 0,
      "byteOffset": 179376,
      "componentType": 5125,
      "count": 10500,
      "max": [
        4347
      ],
      "min": [
        0
      ],
      "type": "SCALAR"
    }
  ],
  "asset": {
    "extras": {
      "author": "Francesco Coldesina (https://sketchfab.com/topfrank2013)",
      "license": "CC-BY-4.0 (http://creativecommons.org/licenses/by/4.0/)",
      "source": "https://sketchfab.com/models/92aafdcc30124d769d3ad400fe8c77b7",
      "title": "Bottle Whisy - One Material"
    },
    "generator": "Sketchfab-3.18.6",
    "version": "2.0"
  },
  "bufferViews": [
    {
      "buffer": 0,
      "byteLength": 221376,
      "byteOffset": 0,
      "name": "floatBufferViews",
      "target": 34963
    },
    {
      "buffer": 0,
      "byteLength": 119744,
      "byteOffset": 221376,
      "byteStride": 8,
      "name": "floatBufferViews",
      "target": 34962
    },
    {
      "buffer": 0,
      "byteLength": 359232,
      "byteOffset": 341120,
      "byteStride": 12,
      "name": "floatBufferViews",
      "target": 34962
    },
    {
      "buffer": 0,
      "byteLength": 239488,
      "byteOffset": 700352,
      "byteStride": 16,
      "name": "floatBufferViews",
      "target": 34962
    }
  ],
  "buffers": [
    {
      "byteLength": 939840,
      "uri": "scene.bin"
    }
  ],
  "extensionsRequired": [
    "KHR_materials_pbrSpecularGlossiness"
  ],
  "extensionsUsed": [
    "KHR_materials_pbrSpecularGlossiness"
  ],
  "images": [
    {
      "uri": "textures/Bottle_W_diffuse.png"
    },
    {
      "uri": "textures/Bottle_W_specularGlossiness.png"
    },
    {
      "uri": "textures/Bottle_W_normal.png"
    }
  ],
  "materials": [
    {
      "alphaMode": "BLEND",
      "doubleSided": true,
      "emissiveFactor": [
        0,
        0,
        0
      ],
      "extensions": {
        "KHR_materials_pbrSpecularGlossiness": {
          "diffuseFactor": [
            1,
            1,
            1,
            1
          ],
          "diffuseTexture": {
            "index": 0,
            "texCoord": 0
          },
          "glossinessFactor": 1,
          "specularFactor": [
            1,
            1,
            1
          ],
          "specularGlossinessTexture": {
            "index": 1,
            "texCoord": 0
          }
        }
      },
      "name": "Bottle_W",
      "normalTexture": {
        "index": 2,
        "scale": 1,
        "texCoord": 0
      }
    }
  ],
  "meshes": [
    {
      "primitives": [
        {
          "attributes": {
            "NORMAL": 1,
            "POSITION": 0,
            "TANGENT": 2,
            "TEXCOORD_0": 3
          },
          "indices": 4,
          "material": 0,
          "mode": 4
        }
      ]
    },
    {
      "primitives": [
        {
          "attributes": {
            "NORMAL": 6,
            "POSITION": 5,
            "TANGENT": 7,
            "TEXCOORD_0": 8
          },
          "indices": 9,
          "material": 0,
          "mode": 4
        }
      ]
    },
    {
      "primitives": [
        {
          "attributes": {
            "NORMAL": 11,
            "POSITION": 10,
            "TANGENT": 12,
            "TEXCOORD_0": 13
          },
          "indices": 14,
          "material": 0,
          "mode": 4
        }
      ]
    }
  ],
  "nodes": [
    {
      "children": [
        1
      ],
      "name": "RootNode (gltf orientation matrix)",
      "rotation": [
        -0.70710678118654746,
        -0,
        -0,
        0.70710678118654757
      ]
    },
    {
      "children": [
        2
      ],
      "name": "RootNode (model correction matrix)"
    },
    {
      "children": [
        3,
        4,
        5
      ],
      "name": "Bottle W1.obj.cleaner.materialmerger.gles"
    },
    {
      "mesh": 0,
      "name": ""
    },
    {
      "mesh": 1,
      "name": ""
    },
    {
      "mesh": 2,
      "name": ""
    }
  ],
  "samplers": [
    {
      "magFilter": 9729,
      "minFilter": 9987,
      "wrapS": 10497,
      "wrapT": 10497
    }
  ],
  "scene": 0,
  "scenes": [
    {
      "name": "OSG_Scene",
      "nodes": [
        0
      ]
    }
  ],
  "textures": [
    {
      "sampler": 0,
      "source": 0
    },
    {
      "sampler": 0,
      "source": 1
    },
    {
      "sampler": 0,
      "source": 2
    }
  ]
}

