{
  "accessors": [
    {
      "bufferView": 2,
      "componentType": 5126,
      "count": 239,
      "max": [
        1,
        1.7801616191864014,
        0.95105671882629395
      ],
      "min": [
        -1.0000002384185791,
        -1,
        -0.95105695724487305
      ],
      "type": "VEC3"
    },
    {
      "bufferView": 2,
      "byteOffset": 2868,
      "componentType": 5126,
      "count": 239,
      "max": [
        1,
        1,
        0.95105659961700439
      ],
      "min": [
        -1,
        -1,
        -0.95105665922164917
      ],
      "type": "VEC3"
    },
    {
      "bufferView": 3,
      "componentType": 5126,
      "count": 239,
      "max": [
        1,
        1,
        0.99999940395355225,
        1
      ],
      "min": [
        -0.98935949802398682,
        -0.5241207480430603,
        -0.99999940395355225,
        -1
      ],
      "type": "VEC4"
    },
    {
      "bufferView": 1,
      "componentType": 5126,
      "count": 239,
      "max": [
        0.99508655071258545,
        0.98615002632141113
      ],
      "min": [
        0.029029637575149536,
        0.012411395087838173
      ],
      "type": "VEC2"
    },
    {
      "bufferView": 0,
      "componentType": 5125,
      "count": 840,
      "max": [
        238
      ],
      "min": [
        0
      ],
      "type": "SCALAR"
    },
    {
      "bufferView": 2,
      "byteOffset": 5736,
      "componentType": 5126,
      "count": 239,
      "max": [
        1,
        1.7801616191864014,
        0.95105671882629395
      ],
      "min": [
        -1.0000002384185791,
        -1,
        -0.95105695724487305
      ],
      "type": "VEC3"
    },
    {
      "bufferView": 2,
      "byteOffset": 8604,
      "componentType": 5126,
      "count": 239,
      "max": [
        1,
        1,
        0.95105659961700439
      ],
      "min": [
        -1,
        -1,
        -0.95105665922164917
      ],
      "type": "VEC3"
    },
    {
      "bufferView": 3,
      "byteOffset": 3824,
      "componentType": 5126,
      "count": 239,
      "max": [
        1,
        1,
        0.99999940395355225,
        1
      ],
      "min": [
        -0.98935949802398682,
        -0.5241207480430603,
        -0.99999940395355225,
        -1
      ],
      "type": "VEC4"
    },
    {
      "bufferView": 1,
      "byteOffset": 1912,
      "componentType": 5126,
      "count": 239,
      "max": [
        0.99508655071258545,
        0.98615002632141113
      ],
      "min": [
        0.029029637575149536,
        0.012411395087838173
      ],
      "type": "VEC2"
    },
    {
      "bufferView": 0,
      "byteOffset": 3360,
      "componentType": 5125,
      "count": 840,
      "max": [
        238
      ],
      "min": [
        0
      ],
      "type": "SCALAR"
    }
  ],
  "asset": {
    "extras": {
      "author": "Fabian van Dorst (https://sketchfab.com/FabianvanDorst)",
      "license": "CC-BY-4.0 (http://creativecommons.org/licenses/by/4.0/)",
      "source": "https://sketchfab.com/models/d38460faf7c541668fa086eaa4d0b613",
      "title": "Johnny's Beer"
    },
    "generator": "Sketchfab-3.19.6",
    "version": "2.0"
  },
  "bufferViews": [
    {
      "buffer": 0,
      "byteLength": 6720,
      "byteOffset": 0,
      "name": "floatBufferViews",
      "target": 34963
    },
    {
      "buffer": 0,
      "byteLength": 3824,
      "byteOffset": 6720,
      "byteStride": 8,
      "name": "floatBufferViews",
      "target": 34962
    },
    {
      "buffer": 0,
      "byteLength": 11472,
      "byteOffset": 10544,
      "byteStride": 12,
      "name": "floatBufferViews",
      "target": 34962
    },
    {
      "buffer": 0,
      "byteLength": 7648,
      "byteOffset": 22016,
      "byteStride": 16,
      "name": "floatBufferViews",
      "target": 34962
    }
  ],
  "buffers": [
    {
      "byteLength": 29664,
      "uri": "scene.bin"
    }
  ],
  "images": [
    {
      "uri": "textures/lambert1_baseColor.png"
    },
    {
      "uri": "textures/lambert1_metallicRoughness.png"
    }
  ],
  "materials": [
    {
      "doubleSided": true,
      "emissiveFactor": [
        0,
        0,
        0
      ],
      "name": "lambert1",
      "pbrMetallicRoughness": {
        "baseColorFactor": [
          0.38586128050000001,
          0.38586128050000001,
          0.38586128050000001,
          1
        ],
        "baseColorTexture": {
          "index": 0,
          "texCoord": 0
        },
        "metallicFactor": 0,
        "metallicRoughnessTexture": {
          "index": 1,
          "texCoord": 0
        },
        "roughnessFactor": 1
      }
    }
  ],
  "meshes": [
    {
      "name": "Bottle_Low_lambert1_0",
      "primitives": [
        {
          "attributes": {
            "NORMAL": 1,
            "POSITION": 0,
            "TANGENT": 2,
            "TEXCOORD_0": 3
          },
          "indices": 4,
          "material": 0,
          "mode": 4
        }
      ]
    },
    {
      "name": "Bottle_Low1_lambert1_0",
      "primitives": [
        {
          "attributes": {
            "NORMAL": 6,
            "POSITION": 5,
            "TANGENT": 7,
            "TEXCOORD_0": 8
          },
          "indices": 9,
          "material": 0,
          "mode": 4
        }
      ]
    }
  ],
  "nodes": [
    {
      "children": [
        1
      ],
      "name": "RootNode (gltf orientation matrix)",
      "rotation": [
        -0.70710678118654746,
        -0,
        -0,
        0.70710678118654757
      ]
    },
    {
      "children": [
        2
      ],
      "name": "RootNode (model correction matrix)"
    },
    {
      "children": [
        3
      ],
      "matrix": [
        1,
        0,
        0,
        0,
        0,
        0,
        1,
        0,
        0,
        -1,
        0,
        0,
        0,
        0,
        0,
        1
      ],
      "name": "816b64bbc25b4265b7ef1bccbb75acf8.fbx"
    },
    {
      "children": [
        4,
        6
      ],
      "name": "RootNode"
    },
    {
      "children": [
        5
      ],
      "matrix": [
        1,
        0,
        0,
        0,
        0,
        2.7445428371429443,
        0,
        0,
        0,
        0,
        1,
        0,
        0,
        2.7011537551879883,
        0.026449304074048996,
        1
      ],
      "name": "Bottle_Low"
    },
    {
      "mesh": 0,
      "name": "Bottle_Low_lambert1_0"
    },
    {
      "children": [
        7
      ],
      "matrix": [
        0.59304637476939925,
        -0.0048129750972717433,
        0.80515391860413033,
        0,
        2.209818900767313,
        0.0097293900293025613,
        -1.6276121004999462,
        0,
        1.1657341758564144e-15,
        0.9999821339817665,
        0.0059776012975433224,
        0,
        -1.2636479139328003,
        0.93837696313858032,
        -2.944796085357666,
        1
      ],
      "name": "Bottle_Low1"
    },
    {
      "mesh": 1,
      "name": "Bottle_Low1_lambert1_0"
    }
  ],
  "samplers": [
    {
      "magFilter": 9729,
      "minFilter": 9987,
      "wrapS": 10497,
      "wrapT": 10497
    }
  ],
  "scene": 0,
  "scenes": [
    {
      "name": "OSG_Scene",
      "nodes": [
        0
      ]
    }
  ],
  "textures": [
    {
      "sampler": 0,
      "source": 0
    },
    {
      "sampler": 0,
      "source": 1
    }
  ]
}

